<?xml version="1.0" standalone="no"?>
<!DOCTYPE svg PUBLIC "-//W3C//DTD SVG 20010904//EN"
 "http://www.w3.org/TR/2001/REC-SVG-20010904/DTD/svg10.dtd">
<svg version="1.0" xmlns="http://www.w3.org/2000/svg"
 width="500.000000pt" height="500.000000pt" viewBox="0 0 500.000000 500.000000"
 preserveAspectRatio="xMidYMid meet">

<g transform="translate(0.000000,500.000000) scale(0.100000,-0.100000)"
fill="#000000" stroke="none">
<path d="M640 4256 c0 -95 -3 -275 -7 -399 l-6 -227 1379 -2 1379 -3 -1 -145
c-1 -80 -2 -209 -3 -287 l-1 -143 -1298 0 -1299 0 -6 -322 c-3 -178 -5 -336
-4 -353 l2 -30 1120 -2 c616 -1 1202 -2 1303 -2 l182 -1 0 -285 0 -285 -1410
0 -1410 0 0 -415 0 -415 1934 0 1934 0 6 1008 c3 554 8 1339 10 1745 l5 737
-1904 0 -1905 -1 0 -173z m3430 -469 c0 -96 -2 -176 -5 -178 -2 -3 -20 -3 -40
-1 l-35 4 0 119 c0 112 -1 119 -20 119 -19 0 -20 -7 -20 -116 l0 -115 -37 3
-38 3 -3 113 c-2 104 -4 112 -22 112 -19 0 -20 -7 -20 -125 l0 -125 -40 0 -40
0 0 180 0 180 160 0 160 0 0 -173z m0 -316 l0 -79 -97 -52 -96 -52 79 -44 c43
-24 87 -46 97 -50 14 -4 17 -18 17 -90 l0 -84 -62 0 c-35 0 -107 3 -160 7
l-98 6 0 49 0 48 103 0 c115 1 116 -5 -17 70 l-81 46 0 43 0 43 90 50 c50 27
94 53 100 59 5 5 -29 9 -93 9 l-102 0 0 50 0 50 160 0 160 0 0 -79z m0 -561
l0 -50 -160 0 -160 0 0 50 0 50 160 0 160 0 0 -50z m0 -190 l0 -80 -105 -82
-105 -83 102 -5 103 -5 3 -52 3 -53 -160 0 -161 0 0 79 0 78 107 84 107 84
-104 5 -105 5 -3 53 -3 52 160 0 161 0 0 -80z m-240 -546 c0 -117 1 -124 20
-124 17 0 20 7 21 53 0 28 2 81 2 117 l2 65 35 0 35 0 3 -117 c2 -110 4 -118
22 -118 19 0 20 7 20 125 l0 125 40 0 40 0 0 -175 0 -175 -160 0 -160 0 0 173
c0 96 2 176 5 178 2 3 20 3 40 1 l35 -4 0 -124z m240 -353 l0 -80 -96 -52 -96
-52 53 -30 c30 -16 73 -41 97 -54 l42 -24 0 -80 0 -80 -157 3 -158 3 -3 52 -3
52 100 3 100 3 -97 55 c-96 55 -97 56 -100 96 l-3 40 96 53 c52 29 95 57 95
62 0 5 -43 9 -95 9 l-95 0 0 50 0 50 160 0 160 0 0 -79z"/>
<path d="M1978 803 c-15 -4 -18 -17 -18 -89 l0 -84 540 0 541 0 -3 88 -3 87
-520 1 c-286 1 -528 -1 -537 -3z m86 -39 c21 -8 21 -63 1 -70 -8 -4 -15 -15
-15 -26 0 -39 -25 -11 -28 31 -5 66 4 80 42 65z m129 -1 c3 -5 8 -31 12 -59
l6 -51 -31 0 -32 0 7 51 c3 27 8 53 11 58 6 10 21 10 27 1z m131 1 c12 -5 16
-20 16 -60 0 -53 0 -54 -30 -54 -30 0 -30 1 -30 53 0 66 7 75 44 61z m142 -5
c3 -6 2 -14 -3 -18 -13 -8 -12 -54 1 -63 16 -11 -8 -31 -30 -26 -15 2 -20 14
-22 47 -2 24 -1 50 2 57 6 17 42 19 52 3z m134 -49 l0 -58 -32 2 c-30 1 -33 5
-36 35 -6 58 4 78 38 78 30 0 30 -1 30 -57z m124 13 c-7 -61 -11 -73 -24 -73
-5 0 -10 20 -10 44 0 25 -5 46 -12 48 -19 7 1 28 27 28 23 0 24 -2 19 -47z
m119 40 c3 -5 8 -31 12 -59 l6 -51 -31 0 -32 0 7 51 c3 27 8 53 11 58 6 10 21
10 27 1z m117 -38 c0 -25 5 -45 10 -45 6 0 10 -7 10 -15 0 -9 -9 -15 -25 -15
-24 0 -25 3 -25 53 0 30 3 57 7 60 16 16 23 4 23 -38z"/>
<path d="M2037 593 c-8 -14 -30 -214 -23 -220 3 -3 9 8 12 26 8 37 28 36 32
-2 2 -15 8 -27 13 -27 11 0 11 -7 -5 118 -14 102 -19 121 -29 105z m13 -108
c0 -19 -4 -35 -10 -35 -11 0 -13 30 -4 54 10 25 14 19 14 -19z"/>
<path d="M2150 485 c0 -107 1 -115 19 -115 39 0 51 26 51 115 0 89 -12 115
-51 115 -18 0 -19 -8 -19 -115z m45 0 c0 -54 -4 -80 -12 -82 -10 -4 -13 17
-13 82 0 65 3 86 13 83 8 -3 12 -29 12 -83z"/>
<path d="M2285 553 c4 -27 9 -77 13 -113 4 -36 12 -64 17 -63 11 2 33 124 34
186 1 23 -3 36 -9 32 -5 -3 -10 -30 -10 -58 0 -29 -5 -59 -10 -67 -7 -11 -10
-6 -10 20 0 53 -12 110 -22 110 -5 0 -6 -21 -3 -47z"/>
<path d="M2420 485 c0 -70 4 -115 10 -115 6 0 10 45 10 115 0 70 -4 115 -10
115 -6 0 -10 -45 -10 -115z"/>
<path d="M2522 588 c-19 -19 -13 -70 13 -113 28 -45 32 -75 10 -75 -8 0 -15 7
-15 15 0 8 -5 15 -11 15 -17 0 -6 -42 14 -54 15 -9 21 -7 33 8 21 29 17 58
-11 100 -25 37 -34 86 -15 86 5 0 13 -7 18 -16 5 -9 12 -12 15 -7 7 10 -19 53
-32 53 -4 0 -12 -5 -19 -12z"/>
<path d="M2661 581 c-21 -21 -23 -31 -19 -107 3 -79 12 -104 38 -104 26 0 35
25 38 102 3 71 1 87 -15 107 l-20 24 -22 -22z m37 -91 c3 -75 -9 -110 -28 -80
-11 17 -13 120 -4 145 14 36 29 5 32 -65z"/>
<path d="M2790 484 c0 -74 4 -113 10 -109 6 3 10 27 10 51 0 62 24 54 28 -9 2
-26 7 -47 13 -47 12 0 12 97 -1 105 -7 4 -7 12 0 25 5 10 10 28 10 39 0 24
-33 61 -55 61 -12 0 -15 -20 -15 -116z m45 51 c0 -16 -6 -30 -12 -32 -9 -3
-13 7 -13 32 0 25 4 35 13 33 6 -3 12 -17 12 -33z"/>
<path d="M2976 589 c-2 -8 -8 -30 -14 -49 l-9 -35 -8 43 c-4 23 -12 42 -17 42
-5 0 -7 -8 -5 -17 14 -51 29 -156 24 -173 -3 -11 -1 -23 4 -26 5 -3 9 10 9 28
0 18 7 69 15 112 8 44 13 81 10 84 -2 3 -6 -1 -9 -9z"/>
<path d="M1960 235 l0 -95 73 -1 c59 -1 614 -1 930 1 l77 0 0 95 0 95 -540 0
-540 0 0 -95z m100 57 c0 -5 -3 -12 -6 -15 -11 -10 -13 -67 -3 -73 16 -10 9
-24 -11 -24 -18 0 -20 7 -20 60 0 53 2 60 20 60 11 0 20 -4 20 -8z m65 -51 c0
-53 -2 -58 -21 -58 -20 0 -22 5 -21 58 0 53 2 59 21 59 19 0 21 -6 21 -59z
m63 25 c2 -16 -1 -33 -7 -39 -6 -6 -11 -19 -11 -29 0 -10 -4 -18 -10 -18 -6 0
-10 27 -10 61 0 52 2 60 18 57 10 -2 18 -14 20 -32z m52 -16 c0 -32 4 -50 12
-50 9 0 9 -3 1 -11 -7 -7 -19 -9 -27 -6 -22 9 -23 117 -1 117 11 0 15 -12 15
-50z m58 -7 c-4 -81 -28 -85 -28 -4 0 48 3 61 15 61 13 0 15 -11 13 -57z m62
47 c0 -20 -2 -25 -11 -22 -5 1 -9 -9 -9 -23 0 -16 6 -25 15 -25 17 0 19 -9 6
-29 -19 -29 -41 -4 -41 47 0 27 3 52 7 55 10 11 33 8 33 -3z m50 -51 c0 -81
-24 -77 -28 4 -2 46 0 57 13 57 12 0 15 -13 15 -61z m56 45 c-3 -9 -6 -36 -6
-60 0 -24 -4 -44 -10 -44 -5 0 -10 23 -10 50 0 28 -4 50 -10 50 -5 0 -10 5
-10 10 0 6 12 10 26 10 20 0 25 -4 20 -16z m122 -6 c2 -11 -3 -18 -12 -18 -9
0 -16 -8 -16 -20 0 -11 7 -20 15 -20 17 0 18 -2 9 -24 -8 -21 -40 -21 -48 0
-8 20 -8 68 0 89 8 21 48 16 52 -7z m57 -38 c0 -48 -2 -55 -20 -55 -16 0 -21
8 -23 44 -4 54 3 73 25 69 15 -3 18 -14 18 -58z m75 -1 c0 -33 -4 -59 -10 -59
-5 0 -10 6 -11 13 0 10 -2 10 -6 0 -12 -31 -23 -8 -23 46 0 56 1 59 25 59 24
0 25 -3 25 -59z m62 9 c-4 -48 -16 -78 -26 -67 -2 2 -6 30 -8 62 -4 53 -3 57
17 57 21 0 22 -4 17 -52z m68 42 c0 -5 -3 -10 -8 -10 -4 0 -8 -18 -8 -40 -1
-22 2 -40 7 -40 5 0 9 -5 9 -11 0 -6 -10 -9 -22 -7 -19 2 -24 10 -26 47 -2 24
-1 50 2 57 6 16 46 19 46 4z m41 -2 c0 -10 2 -10 6 0 2 6 9 12 14 12 12 0 12
-107 -1 -115 -5 -3 -10 0 -10 7 0 10 -2 10 -9 -1 -16 -24 -31 -1 -31 48 0 26
3 51 7 54 10 11 23 8 24 -5z m85 -4 c-3 -9 -6 -36 -6 -60 0 -24 -4 -44 -10
-44 -5 0 -10 23 -10 50 0 29 -5 50 -11 50 -5 0 -7 5 -4 10 3 6 15 10 27 10 14
0 18 -5 14 -16z"/>
</g>
</svg>
